<svg width="100" height="100" viewBox="0 0 100 100" fill="none" xmlns="http://www.w3.org/2000/svg">
<g clip-path="url(#clip0_11_363)">
<path d="M50.0208 100.042C77.6466 100.042 100.042 77.6466 100.042 50.0208C100.042 22.3951 77.6466 0 50.0208 0C22.3951 0 0 22.3951 0 50.0208C0 77.6466 22.3951 100.042 50.0208 100.042Z" fill="url(#paint0_linear_11_363)"/>
<path fill-rule="evenodd" clip-rule="evenodd" d="M22.6155 49.4794C37.1928 43.1487 46.8971 38.9421 51.7701 36.9013C65.6393 31.112 68.5547 30.1125 70.4289 30.0708C70.8454 30.0708 71.7617 30.1541 72.3865 30.6539C72.8862 31.0704 73.0112 31.6118 73.0945 32.0283C73.1778 32.4448 73.2611 33.3194 73.1778 33.9858C72.4281 41.8992 69.1795 61.0995 67.5135 69.9292C66.8055 73.6776 65.431 74.9271 64.0982 75.0521C61.1828 75.302 58.9754 73.1362 56.1849 71.3036C51.77 68.4298 49.3127 66.6389 45.0229 63.8067C40.0666 60.5581 43.2736 58.7672 46.1057 55.8517C46.8554 55.102 59.6418 43.4402 59.8917 42.399C59.9333 42.2741 59.9333 41.7743 59.6418 41.5244C59.3502 41.2745 58.9337 41.3578 58.6005 41.4411C58.1424 41.5244 51.1453 46.1891 37.526 55.3936C35.5268 56.768 33.7359 57.4344 32.1116 57.3928C30.3207 57.3511 26.9054 56.3932 24.3232 55.5602C21.1995 54.5606 18.7005 54.0192 18.9087 52.2699C19.0337 51.3536 20.2832 50.4373 22.6155 49.4794Z" fill="white"/>
</g>
<defs>
<linearGradient id="paint0_linear_11_363" x1="49.9792" y1="0" x2="49.9792" y2="99.2503" gradientUnits="userSpaceOnUse">
<stop stop-color="#2AABEE"/>
<stop offset="1" stop-color="#229ED9"/>
</linearGradient>
<clipPath id="clip0_11_363">
<rect width="100" height="100" fill="white"/>
</clipPath>
</defs>
</svg>
