<svg width="150" height="150" viewBox="0 0 150 150" fill="none" xmlns="http://www.w3.org/2000/svg">
<g clip-path="url(#clip0_11_343)">
<path d="M75 150C116.421 150 150 116.421 150 75C150 33.5786 116.421 0 75 0C33.5786 0 0 33.5786 0 75C0 116.421 33.5786 150 75 150Z" fill="#0098EA"/>
<path d="M100.608 41.8599H49.3891C39.9718 41.8599 34.0029 52.0183 38.7407 60.2306L70.3511 115.02C72.4138 118.598 77.5832 118.598 79.646 115.02L111.263 60.2306C115.994 52.0315 110.025 41.8599 100.614 41.8599H100.608ZM70.3254 98.5896L63.4412 85.2661L46.8303 55.5573C45.7345 53.6558 47.0879 51.2191 49.3827 51.2191H70.3189V98.596L70.3254 98.5896ZM103.154 55.5508L86.5495 85.2725L79.6653 98.5896V51.2126H100.602C102.896 51.2126 104.25 53.6493 103.154 55.5508Z" fill="white"/>
</g>
<defs>
<clipPath id="clip0_11_343">
<rect width="150" height="150" fill="white"/>
</clipPath>
</defs>
</svg>
